<svg width="500" height="513" viewBox="0 0 500 513" fill="none" xmlns="http://www.w3.org/2000/svg">
<circle cx="250" cy="250" r="178" stroke="#808080"/>
<path d="M480 250C480 377.025 377.025 480 250 480C122.975 480 20 377.025 20 250C20 122.975 122.975 20 250 20C377.025 20 480 122.975 480 250Z" stroke="#808080"/>
<path d="M450.083 498.437L440.602 491.905L443.015 488.403C443.5 487.698 443.814 486.89 443.932 486.043C444.049 485.196 443.967 484.333 443.692 483.522C443.418 482.712 442.957 481.978 442.348 481.377C441.739 480.777 440.998 480.327 440.184 480.063L423.003 474.5C421.878 474.136 420.665 474.144 419.546 474.524C418.426 474.904 417.459 475.635 416.789 476.609L411.665 484.047L409.044 487.852C408.358 488.849 408.02 490.043 408.082 491.252C408.143 492.46 408.601 493.614 409.384 494.536L420.998 508.181C421.419 508.676 421.926 509.091 422.494 509.407C423.193 509.8 423.97 510.035 424.77 510.095L424.757 510.084C424.828 510.09 424.899 510.093 424.97 510.095C425.031 510.099 425.092 510.105 425.152 510.105L425.143 510.096C426.039 510.106 426.924 509.895 427.719 509.482C428.514 509.069 429.195 508.467 429.702 507.728L431.314 505.388L440.796 511.919L442.691 511.642L443.955 509.806L443.539 507.937L434.057 501.406L437.859 495.887L447.34 502.419L449.235 502.142L450.5 500.306L450.083 498.437Z" fill="black"/>
<path d="M264.152 245.773C264.152 245.773 270.807 310.099 249.334 328.697C229.302 346.049 200.994 355.429 175.635 353.95C169.992 353.621 164.097 352.396 159.862 348.652C153.471 343.003 154.652 335.529 160.291 330.236C165.636 324.223 151.876 323.729 150.845 319.666C149.927 316.051 156.121 314.65 155.86 311.576C155.585 308.34 150.919 308.954 149.389 306.861C144.316 299.916 158.704 295.182 149.069 287.004C143.958 282.665 132.667 277.994 138.758 269.71C143.922 262.687 156.712 251.601 159.166 243.109C160.735 237.682 157.185 230.472 156.821 224.808C155.733 207.871 162.649 190.85 172.057 177.017C188.253 153.205 213.96 145.496 240.862 140.348C268.01 135.153 297.498 138.206 321.16 153.261C335.114 162.14 346.192 174.855 353.61 189.601C376.629 235.363 354.293 284.803 319.468 316.056C302.704 331.101 279.603 354.941 284.53 379.918C301.178 431.721 364.391 463.647 411.665 484.047M411.665 484.047L416.789 476.609C417.459 475.635 418.426 474.904 419.546 474.524C420.665 474.144 421.878 474.136 423.003 474.5L440.184 480.063C440.998 480.327 441.739 480.777 442.348 481.377C442.957 481.978 443.417 482.712 443.692 483.522C443.967 484.333 444.049 485.196 443.932 486.043C443.814 486.89 443.5 487.698 443.015 488.403L440.602 491.905L450.083 498.437L450.5 500.306L449.235 502.142L447.34 502.419L437.859 495.887L434.057 501.406L443.539 507.937L443.955 509.806L442.691 511.642L440.796 511.919L431.314 505.388L429.702 507.728C429.195 508.467 428.514 509.069 427.719 509.482C426.924 509.895 426.039 510.106 425.143 510.096L425.152 510.105C425.092 510.105 425.031 510.099 424.97 510.095C424.899 510.093 424.828 510.09 424.757 510.084L424.77 510.095C423.97 510.035 423.193 509.8 422.494 509.407C421.926 509.091 421.419 508.676 420.998 508.181L409.384 494.536C408.601 493.614 408.143 492.46 408.082 491.252C408.02 490.043 408.358 488.849 409.044 487.852L411.665 484.047Z" stroke="white"/>
<path d="M312.863 229.988C320.069 229.691 327.1 224.907 329.826 218.23C332.058 221.334 333.32 225.03 333.454 228.851C333.588 232.672 332.587 236.448 330.579 239.701C326.462 246.112 317.953 249.063 310.504 247.462C310.498 249.949 308.309 251.865 306.116 253.035C299.28 256.682 290.505 256.043 283.983 251.861C290.347 251.498 296.342 248.753 300.776 244.173C305.211 239.592 307.759 233.511 307.915 227.138C308.356 228.056 309.065 228.82 309.948 229.328C310.831 229.837 311.847 230.067 312.863 229.988ZM331.466 185.916C327.72 176.983 318.628 170.546 309.031 169.229C307.919 164.962 305.711 161.06 302.624 157.911C299.538 154.762 295.681 152.475 291.437 151.278C282.951 148.994 273.545 151.866 267.435 158.183C264.406 155.706 260.821 153.999 256.988 153.208C253.156 152.416 249.188 152.565 245.425 153.639C237.945 155.853 231.133 161.317 228.825 168.769C221.561 169.656 213.664 170.852 208.673 176.202C204.248 180.946 203.278 187.069 202.513 193.511C202.513 193.511 200.047 194.82 197.629 198.763C192.625 205.846 192.163 216.194 194.647 224.468C196.998 232.296 203.17 239.739 211.542 240.61C216.067 241.081 222.262 241.58 226.639 240.064C229.87 238.946 232.176 237.217 235.436 238.106C235.996 227.667 240.387 223.459 242.947 221.885C242.922 221.522 242.907 221.167 242.894 220.815L242.519 220.42C236.263 213.81 226.808 203.821 217.403 204.873C215.705 205.099 214.082 205.709 212.655 206.657C211.229 207.604 210.037 208.864 209.171 210.341C208.415 211.536 207.953 212.892 207.82 214.3C207.688 215.707 207.889 217.126 208.408 218.441C209.99 221.766 212.098 223.868 214.676 224.69C218.902 226.038 223.253 223.634 223.295 223.61C223.828 223.309 224.458 223.231 225.048 223.393C225.638 223.556 226.139 223.945 226.442 224.477C226.745 225.008 226.826 225.638 226.666 226.228C226.506 226.819 226.118 227.322 225.588 227.627C225.342 227.768 219.499 231.055 213.321 229.113C209.434 227.89 206.365 224.947 204.201 220.364C204.185 220.33 204.171 220.296 204.156 220.262C203.357 218.279 203.033 216.135 203.212 214.004C203.392 211.872 204.068 209.813 205.187 207.99C206.399 205.912 208.069 204.139 210.07 202.806C212.072 201.473 214.352 200.615 216.736 200.298C217.427 194.729 220.925 180.367 238.586 178.591C239.326 175.891 241.422 170.944 247.268 166.89C247.341 166.84 247.417 166.793 247.496 166.751C250.33 165.422 253.437 164.781 256.565 164.879C260.986 164.956 267.479 166.45 274.166 172.805C277.318 169.589 281.438 167.495 285.894 166.845C294.777 165.528 302.395 171.373 307.42 183.326C313.936 185.971 317.839 189.558 319.028 193.996C320.607 199.887 316.655 204.803 316.485 205.01C316.435 205.071 316.382 205.13 316.326 205.185C307.135 214.316 296.321 213.521 295.368 213.431C288.696 212.977 283.848 216.424 281.113 219.129C284.787 219.862 287.48 221.433 289.136 223.83C292.15 228.192 290.362 233.446 290.284 233.668C290.184 233.955 290.029 234.219 289.826 234.446C289.624 234.673 289.379 234.858 289.105 234.99C288.831 235.121 288.534 235.198 288.23 235.215C287.927 235.232 287.623 235.189 287.336 235.089C287.049 234.988 286.785 234.832 286.558 234.63C286.332 234.427 286.147 234.181 286.016 233.907C285.884 233.633 285.808 233.336 285.791 233.033C285.775 232.729 285.818 232.425 285.919 232.138C285.925 232.119 286.998 228.84 285.314 226.435C284.107 224.712 281.603 223.662 278.028 223.362C275.012 229.746 271.442 233.778 267.385 235.385C266.814 235.612 266.225 235.792 265.625 235.924C260.118 237.127 256.07 233.574 255.9 233.423C255.674 233.22 255.489 232.975 255.357 232.701C255.225 232.427 255.148 232.13 255.131 231.827C255.114 231.523 255.157 231.219 255.258 230.933C255.358 230.646 255.514 230.382 255.717 230.155C255.92 229.929 256.165 229.744 256.439 229.613C256.713 229.481 257.01 229.405 257.314 229.388C257.617 229.371 257.921 229.415 258.208 229.516C258.495 229.617 258.759 229.773 258.985 229.976C259.073 230.051 261.508 232.117 264.69 231.393C268.193 230.598 271.569 226.673 274.454 220.046C274.456 220.041 274.459 220.037 274.461 220.032C274.473 220.005 274.489 219.981 274.502 219.954C274.536 219.881 274.574 219.81 274.615 219.741C274.919 219.256 282.212 207.876 295.721 208.819C295.75 208.821 295.777 208.823 295.806 208.826C296.177 208.863 305.178 209.651 312.961 202.008C313.332 201.506 315.452 198.446 314.551 195.159C313.71 192.089 310.351 189.364 304.838 187.282C304.537 187.168 304.264 186.994 304.035 186.769C303.806 186.544 303.626 186.273 303.507 185.975C301.107 179.957 295.717 170.064 286.572 171.42C284.263 171.767 282.056 172.607 280.101 173.883C278.146 175.159 276.489 176.842 275.242 178.815C272.693 182.802 271.665 187.572 272.343 192.254C279.691 190.638 287.683 193.953 288.081 194.121C288.36 194.239 288.614 194.412 288.827 194.628C289.04 194.844 289.209 195.1 289.323 195.382C289.437 195.663 289.495 195.964 289.493 196.268C289.49 196.572 289.428 196.872 289.31 197.152C289.192 197.432 289.02 197.685 288.803 197.898C288.587 198.112 288.331 198.28 288.049 198.394C287.768 198.508 287.467 198.566 287.163 198.564C286.86 198.562 286.559 198.5 286.279 198.381C286.187 198.342 276.666 194.418 270.548 197.796C267.836 199.294 266.186 202.017 265.506 206.12C265.453 206.435 265.336 206.736 265.162 207.004C264.988 207.272 264.76 207.5 264.492 207.676C264.225 207.851 263.924 207.969 263.609 208.022C263.294 208.075 262.972 208.063 262.662 207.985C262.593 207.968 255.194 206.207 250.862 210.006C248.076 212.449 247.009 216.821 247.69 223.002C247.77 223.545 247.647 224.098 247.343 224.555C247.039 225.012 246.576 225.34 246.044 225.475C229.535 229.593 245.763 259.155 264.152 245.773C270.021 252.464 284.966 249.971 291.462 245.684C298.348 241.141 303.02 232.844 302.646 224.603C307.489 225.122 312.383 224.369 316.846 222.42C321.31 220.47 325.187 217.39 328.097 213.484C331.007 209.578 332.848 204.981 333.438 200.147C334.029 195.312 333.349 190.407 331.466 185.916ZM243.354 214.595C237.564 208.616 229.917 201.576 221.369 200.358C221.71 197.824 222.466 195.363 223.607 193.076C226.775 186.842 232.497 183.478 240.613 183.077C241.169 183.045 241.694 182.816 242.096 182.431C242.497 182.046 242.748 181.53 242.802 180.976C242.825 180.743 243.439 175.244 249.773 170.783C250.97 170.208 260.633 166.069 271.273 176.443C267.994 181.655 266.805 187.912 267.944 193.963C264.74 195.865 262.553 198.928 261.43 203.098C258.166 202.723 252.198 202.703 247.836 206.508C245.56 208.493 244.066 211.201 243.354 214.595Z" fill="url(#paint0_linear_4455_8063)"/>
<defs>
<linearGradient id="paint0_linear_4455_8063" x1="333.645" y1="255.423" x2="182.175" y2="235.908" gradientUnits="userSpaceOnUse">
<stop stop-color="white"/>
<stop offset="0.33" stop-color="#D278FE"/>
<stop offset="0.66" stop-color="#2D69FB"/>
<stop offset="1" stop-color="white"/>
</linearGradient>
</defs>
</svg>
