<svg xmlns="http://www.w3.org/2000/svg" fill="none" viewBox="0 0 112 112"><path fill="#005CB1" fill-rule="evenodd" d="m70.765 2 32.582 18.414v37.8L70.766 77.302l-32.837-19.08V20.404L70.765 2ZM45.491 24.835V53.87L70.75 68.547 95.785 53.88V24.827L70.75 10.676 45.49 24.837l.001-.002Z" clip-rule="evenodd"/><path fill="#32CDFF" fill-rule="evenodd" d="m42.177 18.055 33.266 19.156v37.356L42.35 93.67 9 74.576V36.652l33.177-18.597ZM16.562 41.083v29.109l25.773 14.755L67.88 70.201V41.582l-25.753-14.83-25.565 14.331Z" clip-rule="evenodd"/><path fill="#005EE2" d="m75.033 74.804-4.3 2.482-7.537-4.38L67.88 70.2v-3.32l2.869 1.668 4.693-2.75v8.765l-.41.24.001.001ZM49.78 22.433l-7.603-4.378-4.248 2.382v8.67l4.198-2.354 3.364 1.937v-3.853l4.289-2.404Z" opacity=".5"/><path fill="#3DD279" fill-rule="evenodd" d="m70.765 34.549 32.582 18.532v38l-32.581 19.211-32.837-19.203V53.072l32.836-18.523Zm-25.274 22.94V86.75l25.259 14.773L95.785 86.76V57.48L70.75 43.24 45.49 57.49l.001-.001Z" clip-rule="evenodd"/><path fill="#08AD98" d="m75.443 37.21-4.678-2.661-7.621 4.3 4.737 2.727v3.283l2.869-1.619 4.693 2.67v-8.7ZM49.88 89.318l-7.529 4.346-.969-.555-3.453-2.02v-8.671l4.407 2.523 3.155-1.821v3.631l4.389 2.567Z" opacity=".5"/><path fill="#006387" d="M37.929 53.073v5.146l7.562 4.394V57.49l3.164-1.785-3.164-1.838v-5.06l-7.562 4.266Zm57.856-4.292v5.095l-3.122 1.83 3.122 1.775v5.16l7.562-4.431v-5.128l-7.562-4.301Z" opacity=".5"/></svg>